# xmcd CD database file
# Copyright (C) 1996 Ti Kan
#
# Track frame offsets:
#	183
#	12735
#	19833
#	29433
#	39050
#	48870
#	65255
#	76640
#	84013
#	96963
#	109265
#	121563
#	135180
#	143695
#	150513
#	160445
#	174650
#	182878
#
# Disc length: 2573 seconds
#
# Revision: 1
# Processed by: cddbd v1.4b41PL1 Copyright (c) Steve Scherf et al.
# Submitted via: EasyCD 2.21 - (C) 1996 Greg Leichner
#
DISCID=cf0a0b12
DTITLE=Nat King Cole - The Unforgettable Voice Of Nat King Cole
DYEAR=1900
DGENRE=
TTITLE0=Unforgettable
TTITLE1=You Stepped Out Of A Dream
TTITLE2=I've Grown Accustomed To Her Face
TTITLE3=It's Only A Paper Moon
TTITLE4=Somebody Loves Me
TTITLE5=The End Of A Beautiful Friendship
TTITLE6=The Sand And The Sea
TTITLE7=When You're Smiling
TTITLE8=Route 66
TTITLE9=Mona Lisa
TTITLE10=Autumn Leaves
TTITLE11=Cuba
TTITLE12=Crazy Rhythm
TTITLE13=Thou Swell
TTITLE14=To The Ends Of The Earth
TTITLE15=Darling, Je Vous Aime Beaucoup
TTITLE16=I'm In The Mood For For Love
TTITLE17=It's Crazy (But I'm In Love)
EXTD=
EXTT0=
EXTT1=
EXTT2=
EXTT3=
EXTT4=
EXTT5=
EXTT6=
EXTT7=
EXTT8=
EXTT9=
EXTT10=
EXTT11=
EXTT12=
EXTT13=
EXTT14=
EXTT15=
EXTT16=
EXTT17=
PLAYORDER=
